<?xml version="1.0" encoding="utf-8"?>
<!-- Generator: Adobe Illustrator 23.0.5, SVG Export Plug-In . SVG Version: 6.00 Build 0)  -->
<svg version="1.1" id="Layer_1" xmlns="http://www.w3.org/2000/svg" xmlns:xlink="http://www.w3.org/1999/xlink" x="0px" y="0px"
	 viewBox="0 0 243.59 46" style="enable-background:new 0 0 243.59 46;" xml:space="preserve">
<style type="text/css">
	.st0{fill:none;stroke:#3F3F3F;stroke-width:4;stroke-miterlimit:10;}
	.st1{fill:#201600;}
	.st2{fill:#00B3B3;}
	.st3{fill:#3DC6C8;}
</style>
<g>
	<path class="st1" d="M70.28,27.56h-5.09l-8.2-10.78c-0.31-0.41-0.49-0.68-0.56-0.82h-0.07v11.6h-3.91V4.01h3.91v11.07h0.07
		c0.13-0.24,0.32-0.51,0.56-0.8l7.9-10.27h4.68l-9.25,11.3L70.28,27.56z"/>
	<path class="st1" d="M81.61,27.96c-3.39,0-6.11-1.1-8.16-3.3c-2.04-2.2-3.06-5.06-3.06-8.59c0-3.79,1.04-6.81,3.12-9.07
		s4.91-3.38,8.48-3.38c3.31,0,5.97,1.1,7.99,3.29s3.03,5.05,3.03,8.59c0,3.84-1.04,6.88-3.11,9.12
		C87.83,26.84,85.07,27.96,81.61,27.96z M81.79,7.04c-2.16,0-3.91,0.81-5.26,2.42c-1.35,1.61-2.03,3.73-2.03,6.36
		c0,2.62,0.66,4.73,1.97,6.33c1.31,1.6,3.03,2.4,5.16,2.4c2.26,0,4.04-0.76,5.34-2.28c1.3-1.52,1.96-3.65,1.96-6.39
		c0-2.81-0.63-4.99-1.9-6.52C85.76,7.81,84.01,7.04,81.79,7.04z"/>
	<path class="st1" d="M115.66,27.56h-4.57l-3.76-6.31c-0.34-0.58-0.67-1.08-0.99-1.49c-0.32-0.41-0.65-0.75-0.99-1.01
		c-0.33-0.26-0.7-0.45-1.09-0.57c-0.39-0.12-0.84-0.18-1.33-0.18h-1.58v9.56h-3.89V4.01h7.75c1.11,0,2.12,0.13,3.05,0.39
		s1.74,0.66,2.43,1.19c0.69,0.53,1.23,1.19,1.62,1.99s0.58,1.72,0.58,2.78c0,0.83-0.12,1.6-0.37,2.29c-0.25,0.7-0.6,1.31-1.05,1.86
		s-1,1-1.64,1.39c-0.64,0.38-1.36,0.68-2.16,0.89v0.07c0.43,0.24,0.8,0.51,1.12,0.8c0.32,0.29,0.62,0.59,0.9,0.9
		c0.28,0.31,0.57,0.65,0.85,1.04s0.59,0.84,0.93,1.36L115.66,27.56z M101.36,7.18v7.66h3.25c0.6,0,1.16-0.09,1.67-0.28
		c0.51-0.19,0.95-0.45,1.32-0.8c0.37-0.35,0.66-0.78,0.87-1.28s0.31-1.07,0.31-1.69c0-1.13-0.36-2.01-1.07-2.64
		c-0.71-0.64-1.74-0.95-3.07-0.95H101.36z"/>
	<path class="st1" d="M127.92,27.96c-3.39,0-6.11-1.1-8.16-3.3c-2.04-2.2-3.06-5.06-3.06-8.59c0-3.79,1.04-6.81,3.12-9.07
		s4.91-3.38,8.48-3.38c3.31,0,5.97,1.1,7.99,3.29s3.03,5.05,3.03,8.59c0,3.84-1.04,6.88-3.11,9.12
		C134.15,26.84,131.38,27.96,127.92,27.96z M128.1,7.04c-2.16,0-3.91,0.81-5.26,2.42c-1.35,1.61-2.03,3.73-2.03,6.36
		c0,2.62,0.66,4.73,1.97,6.33c1.31,1.6,3.03,2.4,5.16,2.4c2.26,0,4.04-0.76,5.34-2.28c1.3-1.52,1.96-3.65,1.96-6.39
		c0-2.81-0.63-4.99-1.9-6.52C132.07,7.81,130.33,7.04,128.1,7.04z"/>
	<path class="st1" d="M143.78,27.56V4.01h7.47c2.28,0,4.08,0.5,5.41,1.5c1.33,1,2,2.29,2,3.89c0,1.34-0.38,2.5-1.13,3.48
		c-0.76,0.99-1.8,1.69-3.14,2.1v0.07c1.62,0.19,2.92,0.79,3.88,1.8c0.97,1.01,1.45,2.33,1.45,3.95c0,2.02-0.79,3.65-2.38,4.9
		c-1.59,1.25-3.59,1.87-6.01,1.87H143.78z M147.67,7.14v6.7h2.53c1.36,0,2.42-0.32,3.2-0.96c0.77-0.64,1.16-1.55,1.16-2.72
		c0-2.01-1.35-3.02-4.04-3.02H147.67z M147.67,16.98v7.46h3.33c1.46,0,2.58-0.34,3.38-1.01c0.79-0.67,1.19-1.6,1.19-2.78
		c0-2.44-1.69-3.66-5.08-3.66H147.67z"/>
	<path class="st1" d="M182.06,27.56h-5.09l-8.2-10.78c-0.31-0.41-0.49-0.68-0.56-0.82h-0.07v11.6h-3.91V4.01h3.91v11.07h0.07
		c0.13-0.24,0.32-0.51,0.56-0.8l7.9-10.27h4.68l-9.25,11.3L182.06,27.56z"/>
	<path class="st1" d="M188.93,27.56h-4.02V4.01h4.02V27.56z"/>
</g>
<g>
	<g>
		<path class="st2" d="M48.75,8.33h-6.72v19.24H36.7V8.33h-6.69V4.01h18.73V8.33z"/>
	</g>
</g>
<g>
	<g>
		<path class="st2" d="M194.95,27.6c-0.84,0-1.53-0.26-2.09-0.77s-0.84-1.15-0.84-1.9c0-0.77,0.29-1.41,0.86-1.9
			c0.57-0.49,1.29-0.74,2.15-0.74c0.87,0,1.58,0.25,2.13,0.75c0.55,0.5,0.83,1.13,0.83,1.89c0,0.78-0.28,1.42-0.84,1.92
			C196.58,27.35,195.85,27.6,194.95,27.6z"/>
		<path class="st2" d="M221.58,27.2h-5.97l-3.59-5.94c-0.27-0.45-0.53-0.85-0.77-1.21c-0.25-0.35-0.5-0.66-0.75-0.91
			s-0.51-0.45-0.79-0.58s-0.57-0.2-0.89-0.2h-1.4v8.83h-5.2V4.13h8.24c5.6,0,8.4,2.09,8.4,6.27c0,0.8-0.12,1.55-0.37,2.23
			c-0.25,0.68-0.6,1.29-1.05,1.84s-1,1.02-1.63,1.42c-0.64,0.4-1.35,0.71-2.13,0.93v0.06c0.34,0.11,0.68,0.28,1,0.52
			c0.32,0.24,0.63,0.52,0.93,0.84c0.3,0.32,0.59,0.67,0.86,1.04s0.52,0.73,0.75,1.09L221.58,27.2z M207.43,8.02v6.42h2.25
			c1.12,0,2.01-0.32,2.69-0.96c0.69-0.65,1.03-1.46,1.03-2.43c0-2.02-1.21-3.02-3.62-3.02H207.43z"/>
		<path class="st2" d="M242.67,17.21c0,6.93-3.23,10.39-9.68,10.39c-6.26,0-9.39-3.38-9.39-10.15V4.13h5.21v13.38
			c0,3.73,1.46,5.6,4.37,5.6c2.86,0,4.29-1.8,4.29-5.4V4.13h5.2V17.21z"/>
	</g>
</g>
<g>
	<g>
		<g>
			<path class="st2" d="M20.68,10.72c-1.88-1.92-4.29-3.51-6.82-4.4C9.85,4.89,5.64,6.26,3.36,9.89c-1.78,2.84-2.01,6.61-0.93,9.75
				c1.25,3.66,4.01,6.44,7.64,7.76c6.81,2.46,14.6-0.63,17.68-7.17c0.66-1.4,0.85-2.7,0.93-4.26c0.18-3.66-0.72-7.58-3.37-10.25
				c-1.56-1.57-3.75-2.8-6.03-2.58c-2.04,0.19-3.8,1.32-5.18,2.79c-1.28,1.37-2.31,3-3.09,4.7c-0.56,1.22-1.19,2.6-1.21,3.97
				c-0.04,2.41,3.71,2.41,3.75,0c0.01-0.48-0.12,0.28-0.01,0.04c0.07-0.16,0.08-0.37,0.13-0.54c0.06-0.22,0.13-0.43,0.21-0.65
				c0.05-0.14,0.36-0.91,0.23-0.6c0.54-1.25,1.21-2.46,2.03-3.54c0.65-0.86,1.6-1.82,2.69-2.27c-0.24,0.1,0.46-0.12,0.59-0.15
				c0.38-0.08,0.12-0.01,0.04-0.01c0.18-0.01,0.37-0.01,0.55,0c0.36,0.02,0.96,0.25,1.51,0.59c2.57,1.6,3.37,4.64,3.42,7.27
				c0.01,0.57,0,1.14-0.05,1.71c-0.02,0.23-0.04,0.46-0.07,0.69c-0.05,0.55,0.08-0.36-0.03,0.24c-0.05,0.26-0.11,0.48-0.18,0.73
				c-0.04,0.16-0.26,0.53,0.04-0.08c-0.06,0.13-0.12,0.27-0.19,0.41c-0.19,0.39-0.39,0.77-0.62,1.14c-0.12,0.2-0.25,0.4-0.38,0.6
				c-0.07,0.11-0.5,0.68-0.26,0.37c-0.37,0.47-0.78,0.92-1.22,1.34c-0.83,0.79-1.91,1.5-3.03,1.92c-1.66,0.62-3.38,0.77-5.14,0.62
				c-3-0.25-5.61-1.8-7.03-4.19c-0.62-1.04-1.05-2.27-1.19-3.43c-0.14-1.18-0.06-2.26,0.29-3.42c0.35-1.14,0.92-2.17,2.03-3
				c1.39-1.04,2.91-1.04,4.42-0.59c2.26,0.67,4.15,2.03,5.71,3.62C19.72,15.1,22.37,12.44,20.68,10.72L20.68,10.72z"/>
		</g>
	</g>
	<g>
		<path class="st3" d="M13.21,2.61c0,0-0.63,2.23,0.43,4.17"/>
		<g>
			<path class="st2" d="M11.41,2.12c-0.17,0.6-0.23,1.26-0.25,1.88c-0.03,1.3,0.26,2.59,0.87,3.73c0.22,0.41,0.68,0.74,1.12,0.86
				c0.45,0.12,1.05,0.07,1.44-0.19c0.88-0.57,1.17-1.64,0.67-2.57c-0.07-0.13-0.13-0.26-0.19-0.4c0.06,0.15,0.13,0.3,0.19,0.45
				c-0.19-0.44-0.31-0.91-0.37-1.38c0.02,0.17,0.04,0.33,0.07,0.5c-0.07-0.58-0.07-1.16,0.01-1.73c-0.02,0.17-0.04,0.33-0.07,0.5
				c0.03-0.22,0.07-0.45,0.13-0.66c0.13-0.47,0.06-1.03-0.19-1.44c-0.23-0.39-0.67-0.76-1.12-0.86C13.23,0.7,12.69,0.72,12.27,1
				C11.85,1.26,11.54,1.64,11.41,2.12L11.41,2.12z"/>
		</g>
	</g>
</g>
<g>
	<path d="M11.32,31.26v11.2H9.75v-9.81h-6.5v9.81H1.67v-11.2H11.32z"/>
	<path d="M21.22,34.45c0.65,0.36,1.16,0.87,1.53,1.52s0.55,1.4,0.55,2.26c0,0.85-0.18,1.61-0.55,2.26
		c-0.37,0.66-0.88,1.17-1.53,1.53c-0.65,0.36-1.39,0.54-2.21,0.54c-0.61,0-1.17-0.12-1.67-0.35c-0.51-0.23-0.94-0.58-1.29-1.02v4.38
		h-1.54V33.98h1.47v1.34c0.34-0.47,0.77-0.82,1.3-1.06s1.1-0.36,1.73-0.36C19.83,33.91,20.57,34.09,21.22,34.45z M20.35,40.84
		c0.43-0.25,0.77-0.6,1.02-1.06s0.38-0.97,0.38-1.56c0-0.59-0.13-1.11-0.38-1.56s-0.59-0.8-1.02-1.05
		c-0.43-0.25-0.92-0.37-1.46-0.37c-0.53,0-1.02,0.13-1.45,0.38c-0.43,0.25-0.77,0.6-1.02,1.05s-0.38,0.97-0.38,1.55
		c0,0.59,0.12,1.11,0.37,1.56s0.59,0.81,1.02,1.06c0.44,0.25,0.92,0.38,1.46,0.38C19.43,41.22,19.92,41.09,20.35,40.84z"/>
	<path d="M26.85,42c-0.67-0.37-1.2-0.89-1.58-1.54c-0.38-0.66-0.57-1.4-0.57-2.23s0.19-1.58,0.57-2.23c0.38-0.66,0.9-1.17,1.58-1.54
		s1.43-0.55,2.27-0.55s1.6,0.18,2.26,0.55c0.67,0.37,1.19,0.88,1.57,1.54c0.38,0.66,0.57,1.4,0.57,2.23s-0.19,1.58-0.57,2.23
		c-0.38,0.66-0.9,1.17-1.57,1.54c-0.67,0.37-1.42,0.56-2.26,0.56S27.52,42.37,26.85,42z M30.59,40.84c0.43-0.25,0.77-0.6,1.02-1.06
		c0.25-0.45,0.37-0.97,0.37-1.56c0-0.59-0.12-1.11-0.37-1.56c-0.25-0.45-0.58-0.8-1.02-1.05s-0.92-0.37-1.46-0.37
		s-1.03,0.12-1.46,0.37c-0.43,0.25-0.77,0.59-1.02,1.05s-0.38,0.97-0.38,1.56c0,0.59,0.13,1.11,0.38,1.56s0.59,0.81,1.02,1.06
		c0.43,0.25,0.92,0.38,1.46,0.38S30.16,41.09,30.59,40.84z"/>
	<path d="M44.28,41.12v3.31h-1.44v-1.97h-7.09v1.97h-1.46v-3.31h0.45c0.54-0.03,0.92-0.42,1.12-1.15c0.2-0.74,0.34-1.78,0.42-3.12
		l0.13-2.86h6.58v7.14H44.28z M37.42,39.61c-0.13,0.7-0.38,1.2-0.73,1.51h4.75v-5.79h-3.68l-0.08,1.63
		C37.64,38.03,37.56,38.91,37.42,39.61z"/>
	<path d="M51.96,34.77c0.62,0.58,0.94,1.43,0.94,2.58v5.12h-1.46v-1.12c-0.26,0.39-0.62,0.7-1.1,0.9s-1.04,0.31-1.69,0.31
		c-0.95,0-1.71-0.23-2.28-0.69s-0.86-1.06-0.86-1.81c0-0.75,0.27-1.35,0.82-1.8c0.54-0.45,1.41-0.68,2.59-0.68h2.43v-0.3
		c0-0.66-0.19-1.17-0.58-1.52c-0.38-0.35-0.95-0.53-1.7-0.53c-0.5,0-0.99,0.08-1.47,0.25c-0.48,0.17-0.89,0.39-1.22,0.66l-0.64-1.15
		c0.44-0.35,0.96-0.62,1.57-0.81c0.61-0.19,1.25-0.28,1.94-0.28C50.44,33.91,51.34,34.19,51.96,34.77z M50.44,40.98
		c0.43-0.26,0.74-0.63,0.93-1.11v-1.18H49c-1.3,0-1.95,0.44-1.95,1.31c0,0.43,0.17,0.76,0.5,1.01c0.33,0.25,0.79,0.37,1.38,0.37
		C49.5,41.38,50.01,41.25,50.44,40.98z"/>
	<path d="M63.06,40.13c0,0.75-0.28,1.32-0.84,1.73c-0.56,0.41-1.39,0.61-2.5,0.61h-4.08v-8.48h3.94c1,0,1.79,0.19,2.35,0.57
		c0.56,0.38,0.85,0.92,0.85,1.61c0,0.45-0.12,0.83-0.36,1.16c-0.24,0.33-0.57,0.57-1,0.74C62.51,38.34,63.06,39.03,63.06,40.13z
		 M57.14,37.63h2.3c0.59,0,1.03-0.11,1.34-0.32c0.3-0.21,0.46-0.52,0.46-0.93c0-0.81-0.6-1.22-1.79-1.22h-2.3V37.63z M61.04,40.98
		c0.32-0.2,0.48-0.52,0.48-0.94c0-0.44-0.15-0.76-0.44-0.98c-0.29-0.21-0.75-0.32-1.38-0.32h-2.56v2.54h2.46
		C60.24,41.28,60.72,41.18,61.04,40.98z"/>
	<path d="M71.15,34.77c0.62,0.58,0.94,1.43,0.94,2.58v5.12h-1.46v-1.12c-0.26,0.39-0.62,0.7-1.1,0.9s-1.04,0.31-1.69,0.31
		c-0.95,0-1.71-0.23-2.28-0.69s-0.86-1.06-0.86-1.81c0-0.75,0.27-1.35,0.82-1.8c0.54-0.45,1.41-0.68,2.59-0.68h2.43v-0.3
		c0-0.66-0.19-1.17-0.58-1.52c-0.38-0.35-0.95-0.53-1.7-0.53c-0.5,0-0.99,0.08-1.47,0.25c-0.48,0.17-0.89,0.39-1.22,0.66l-0.64-1.15
		c0.44-0.35,0.96-0.62,1.57-0.81c0.61-0.19,1.25-0.28,1.94-0.28C69.63,33.91,70.52,34.19,71.15,34.77z M69.62,40.98
		c0.43-0.26,0.74-0.63,0.93-1.11v-1.18h-2.37c-1.3,0-1.95,0.44-1.95,1.31c0,0.43,0.17,0.76,0.5,1.01c0.33,0.25,0.79,0.37,1.38,0.37
		C68.69,41.38,69.19,41.25,69.62,40.98z"/>
	<path d="M74.82,33.98h1.54v6.18l5.2-6.18h1.39v8.48h-1.54v-6.18l-5.18,6.18h-1.41V33.98z M76.95,32.31
		c-0.44-0.38-0.66-0.92-0.67-1.64h1.04c0.01,0.39,0.15,0.71,0.41,0.95c0.26,0.24,0.61,0.36,1.05,0.36c0.44,0,0.79-0.12,1.06-0.36
		s0.41-0.56,0.42-0.95h1.07c-0.01,0.71-0.24,1.26-0.69,1.64c-0.45,0.38-1.06,0.57-1.84,0.57C78,32.88,77.39,32.69,76.95,32.31z"/>
	<path d="M98.02,33.98v8.48h-1.54v-7.14H91.7v7.14h-1.54v-8.48H98.02z"/>
	<path d="M107.67,34.45c0.65,0.36,1.16,0.87,1.53,1.52s0.55,1.4,0.55,2.26c0,0.85-0.18,1.61-0.55,2.26
		c-0.37,0.66-0.88,1.17-1.53,1.53c-0.65,0.36-1.39,0.54-2.21,0.54c-0.61,0-1.17-0.12-1.67-0.35c-0.51-0.23-0.94-0.58-1.29-1.02v4.38
		h-1.54V33.98h1.47v1.34c0.34-0.47,0.77-0.82,1.3-1.06s1.1-0.36,1.73-0.36C106.28,33.91,107.02,34.09,107.67,34.45z M106.8,40.84
		c0.43-0.25,0.77-0.6,1.02-1.06s0.38-0.97,0.38-1.56c0-0.59-0.13-1.11-0.38-1.56s-0.59-0.8-1.02-1.05
		c-0.43-0.25-0.92-0.37-1.46-0.37c-0.53,0-1.02,0.13-1.45,0.38c-0.43,0.25-0.77,0.6-1.02,1.05s-0.38,0.97-0.38,1.55
		c0,0.59,0.12,1.11,0.37,1.56s0.59,0.81,1.02,1.06c0.44,0.25,0.92,0.38,1.46,0.38C105.88,41.22,106.36,41.09,106.8,40.84z"/>
	<path d="M113.3,42c-0.67-0.37-1.2-0.89-1.58-1.54c-0.38-0.66-0.57-1.4-0.57-2.23s0.19-1.58,0.57-2.23c0.38-0.66,0.9-1.17,1.58-1.54
		s1.43-0.55,2.27-0.55s1.6,0.18,2.26,0.55s1.19,0.88,1.57,1.54c0.38,0.66,0.57,1.4,0.57,2.23s-0.19,1.58-0.57,2.23
		c-0.38,0.66-0.9,1.17-1.57,1.54s-1.42,0.56-2.26,0.56S113.97,42.37,113.3,42z M117.04,40.84c0.43-0.25,0.77-0.6,1.02-1.06
		c0.25-0.45,0.37-0.97,0.37-1.56c0-0.59-0.12-1.11-0.37-1.56c-0.25-0.45-0.58-0.8-1.02-1.05s-0.92-0.37-1.46-0.37
		s-1.03,0.12-1.46,0.37c-0.43,0.25-0.77,0.59-1.02,1.05s-0.38,0.97-0.38,1.56c0,0.59,0.13,1.11,0.38,1.56s0.59,0.81,1.02,1.06
		c0.43,0.25,0.92,0.38,1.46,0.38S116.61,41.09,117.04,40.84z"/>
	<path d="M131.56,41.31c-0.88,0.76-2.11,1.18-3.7,1.26v2.99h-1.5v-2.99c-1.59-0.09-2.82-0.5-3.69-1.26c-0.87-0.75-1.3-1.79-1.3-3.11
		c0-1.31,0.43-2.34,1.3-3.07c0.86-0.74,2.1-1.15,3.7-1.23v-3.31h1.5v3.31c1.59,0.08,2.82,0.5,3.7,1.24
		c0.88,0.74,1.31,1.76,1.31,3.06C132.87,39.52,132.43,40.56,131.56,41.31z M123.76,40.34c0.58,0.51,1.45,0.81,2.6,0.88v-5.95
		c-1.16,0.08-2.03,0.36-2.61,0.86s-0.86,1.19-0.86,2.08C122.88,39.12,123.17,39.83,123.76,40.34z M131.35,38.21
		c0-0.9-0.29-1.59-0.88-2.09s-1.46-0.78-2.61-0.86v5.97C130.19,41.05,131.35,40.04,131.35,38.21z"/>
	<path d="M142.64,38.74h-6.88c0.1,0.75,0.42,1.35,0.98,1.8c0.56,0.45,1.26,0.68,2.09,0.68c1.01,0,1.83-0.34,2.45-1.02l0.85,0.99
		c-0.38,0.45-0.86,0.79-1.43,1.02s-1.21,0.35-1.91,0.35c-0.9,0-1.69-0.18-2.38-0.55s-1.23-0.88-1.61-1.54
		c-0.38-0.66-0.57-1.41-0.57-2.24c0-0.82,0.18-1.56,0.55-2.22s0.88-1.18,1.52-1.54c0.64-0.37,1.37-0.55,2.18-0.55
		s1.53,0.18,2.17,0.55s1.13,0.88,1.49,1.54s0.54,1.42,0.54,2.27C142.68,38.39,142.66,38.54,142.64,38.74z M136.64,35.87
		c-0.5,0.45-0.79,1.03-0.87,1.76h5.44c-0.08-0.71-0.38-1.3-0.87-1.75s-1.11-0.68-1.85-0.68S137.13,35.42,136.64,35.87z"/>
	<path d="M146.41,42c-0.68-0.37-1.21-0.89-1.59-1.54s-0.58-1.4-0.58-2.23s0.19-1.58,0.58-2.23c0.38-0.66,0.91-1.17,1.59-1.54
		c0.68-0.37,1.45-0.55,2.31-0.55c0.77,0,1.45,0.15,2.06,0.46s1.07,0.76,1.4,1.34l-1.17,0.75c-0.27-0.41-0.6-0.71-0.99-0.91
		c-0.4-0.2-0.83-0.3-1.31-0.3c-0.55,0-1.05,0.12-1.5,0.37s-0.79,0.59-1.04,1.05s-0.38,0.97-0.38,1.56c0,0.6,0.13,1.12,0.38,1.58
		s0.6,0.8,1.04,1.05c0.44,0.25,0.94,0.37,1.5,0.37c0.48,0,0.92-0.1,1.31-0.3c0.39-0.2,0.72-0.51,0.99-0.91l1.17,0.74
		c-0.33,0.59-0.8,1.04-1.4,1.35s-1.29,0.47-2.06,0.47C147.86,42.56,147.09,42.37,146.41,42z"/>
	<path d="M155.39,42c-0.68-0.37-1.21-0.89-1.59-1.54s-0.58-1.4-0.58-2.23s0.19-1.58,0.58-2.23c0.38-0.66,0.91-1.17,1.59-1.54
		c0.68-0.37,1.45-0.55,2.31-0.55c0.77,0,1.45,0.15,2.06,0.46s1.07,0.76,1.4,1.34l-1.17,0.75c-0.27-0.41-0.6-0.71-0.99-0.91
		c-0.4-0.2-0.83-0.3-1.31-0.3c-0.55,0-1.05,0.12-1.5,0.37s-0.79,0.59-1.04,1.05s-0.38,0.97-0.38,1.56c0,0.6,0.13,1.12,0.38,1.58
		s0.6,0.8,1.04,1.05c0.44,0.25,0.94,0.37,1.5,0.37c0.48,0,0.92-0.1,1.31-0.3c0.39-0.2,0.72-0.51,0.99-0.91l1.17,0.74
		c-0.33,0.59-0.8,1.04-1.4,1.35s-1.29,0.47-2.06,0.47C156.84,42.56,156.06,42.37,155.39,42z"/>
	<path d="M163.11,33.98h1.54v6.18l5.2-6.18h1.39v8.48h-1.54v-6.18l-5.18,6.18h-1.41V33.98z"/>
	<path d="M175.54,42c-0.67-0.37-1.2-0.89-1.58-1.54c-0.38-0.66-0.57-1.4-0.57-2.23s0.19-1.58,0.57-2.23
		c0.38-0.66,0.9-1.17,1.58-1.54s1.43-0.55,2.27-0.55s1.6,0.18,2.26,0.55s1.19,0.88,1.57,1.54c0.38,0.66,0.57,1.4,0.57,2.23
		s-0.19,1.58-0.57,2.23c-0.38,0.66-0.9,1.17-1.57,1.54s-1.42,0.56-2.26,0.56S176.21,42.37,175.54,42z M179.27,40.84
		c0.43-0.25,0.77-0.6,1.02-1.06c0.25-0.45,0.37-0.97,0.37-1.56c0-0.59-0.12-1.11-0.37-1.56c-0.25-0.45-0.58-0.8-1.02-1.05
		s-0.92-0.37-1.46-0.37s-1.03,0.12-1.46,0.37c-0.43,0.25-0.77,0.59-1.02,1.05s-0.38,0.97-0.38,1.56c0,0.59,0.13,1.11,0.38,1.56
		s0.59,0.81,1.02,1.06c0.43,0.25,0.92,0.38,1.46,0.38S178.84,41.09,179.27,40.84z"/>
	<path d="M184.4,33.98h1.54v3.6h4.83v-3.6h1.54v8.48h-1.54v-3.55h-4.83v3.55h-1.54V33.98z"/>
	<path d="M200.99,34.77c0.62,0.58,0.94,1.43,0.94,2.58v5.12h-1.46v-1.12c-0.26,0.39-0.62,0.7-1.1,0.9s-1.04,0.31-1.69,0.31
		c-0.95,0-1.71-0.23-2.28-0.69s-0.86-1.06-0.86-1.81c0-0.75,0.27-1.35,0.82-1.8c0.54-0.45,1.41-0.68,2.59-0.68h2.43v-0.3
		c0-0.66-0.19-1.17-0.58-1.52c-0.38-0.35-0.95-0.53-1.7-0.53c-0.5,0-0.99,0.08-1.47,0.25c-0.48,0.17-0.89,0.39-1.22,0.66l-0.64-1.15
		c0.44-0.35,0.96-0.62,1.57-0.81c0.61-0.19,1.25-0.28,1.94-0.28C199.46,33.91,200.36,34.19,200.99,34.77z M199.46,40.98
		c0.43-0.26,0.74-0.63,0.93-1.11v-1.18h-2.37c-1.3,0-1.95,0.44-1.95,1.31c0,0.43,0.17,0.76,0.5,1.01c0.33,0.25,0.79,0.37,1.38,0.37
		C198.52,41.38,199.03,41.25,199.46,40.98z"/>
	<path d="M211.94,33.98v8.48h-1.54v-7.14h-3.65l-0.1,1.89c-0.05,1.14-0.16,2.09-0.3,2.86s-0.39,1.37-0.74,1.83
		c-0.34,0.46-0.82,0.69-1.42,0.69c-0.28,0-0.59-0.05-0.94-0.14l0.1-1.3c0.14,0.03,0.27,0.05,0.38,0.05c0.43,0,0.75-0.19,0.96-0.56
		c0.21-0.37,0.35-0.82,0.42-1.33c0.06-0.51,0.12-1.24,0.18-2.19l0.14-3.14H211.94z"/>
	<path d="M221.27,37.6c0.57,0.48,0.85,1.16,0.85,2.03c0,0.92-0.31,1.62-0.92,2.12s-1.49,0.74-2.63,0.73l-3.68-0.02v-8.48h1.54v2.86
		l2.38,0.02C219.88,36.88,220.7,37.12,221.27,37.6z M220.01,40.9c0.36-0.29,0.54-0.71,0.54-1.28c0-0.55-0.17-0.96-0.52-1.22
		c-0.35-0.26-0.88-0.39-1.59-0.4l-2.02-0.03v3.33l2.02,0.02C219.13,41.32,219.65,41.18,220.01,40.9z"/>
	<path d="M224.05,33.98h1.54v3.6h4.83v-3.6h1.54v8.48h-1.54v-3.55h-4.83v3.55h-1.54V33.98z"/>
	<path d="M236.27,42c-0.67-0.37-1.2-0.89-1.58-1.54c-0.38-0.66-0.57-1.4-0.57-2.23s0.19-1.58,0.57-2.23
		c0.38-0.66,0.9-1.17,1.58-1.54s1.43-0.55,2.27-0.55s1.6,0.18,2.26,0.55s1.19,0.88,1.57,1.54c0.38,0.66,0.57,1.4,0.57,2.23
		s-0.19,1.58-0.57,2.23c-0.38,0.66-0.9,1.17-1.57,1.54s-1.42,0.56-2.26,0.56S236.95,42.37,236.27,42z M240.01,40.84
		c0.43-0.25,0.77-0.6,1.02-1.06c0.25-0.45,0.37-0.97,0.37-1.56c0-0.59-0.12-1.11-0.37-1.56c-0.25-0.45-0.58-0.8-1.02-1.05
		s-0.92-0.37-1.46-0.37s-1.03,0.12-1.46,0.37c-0.43,0.25-0.77,0.59-1.02,1.05s-0.38,0.97-0.38,1.56c0,0.59,0.13,1.11,0.38,1.56
		s0.59,0.81,1.02,1.06c0.43,0.25,0.92,0.38,1.46,0.38S239.58,41.09,240.01,40.84z"/>
</g>
</svg>
